<?xml version="1.0" encoding="iso-8859-1"?>
<!-- Generator: Adobe Illustrator 19.0.0, SVG Export Plug-In . SVG Version: 6.00 Build 0)  -->
<svg version="1.1" id="Layer_1" xmlns="http://www.w3.org/2000/svg" xmlns:xlink="http://www.w3.org/1999/xlink" x="0px" y="0px"
	 viewBox="0 0 512 512" style="enable-background:new 0 0 512 512;" xml:space="preserve">
<g>
	<g>
		<path d="M495.304,105.739H300.522V72.348h194.783c9.217,0,16.696-7.473,16.696-16.696c0-9.223-7.479-16.696-16.696-16.696H297.445
			c-6.915-19.391-25.274-33.391-47.01-33.391c-12.875,0-24.509,5.018-33.391,13.027c-8.882-8.009-20.517-13.027-33.391-13.027
			s-24.509,5.018-33.391,13.027c-8.882-8.009-20.517-13.027-33.391-13.027c-21.737,0-40.095,14-47.01,33.391H16.696
			C7.479,38.957,0,46.43,0,55.652c0,9.223,7.479,16.696,16.696,16.696h50.087v33.391H16.696C7.479,105.739,0,113.212,0,122.435
			c0,9.223,7.479,16.584,16.696,16.584h50.198c0,5.935-0.345,61.019,0.309,66.894H16.696C7.479,205.913,0,213.386,0,222.609v66.783
			c0,51.949,26.562,97.705,66.773,124.661h300.542c40.211-26.956,66.773-72.712,66.773-124.661v-66.783
			c0-9.223-7.479-16.696-16.696-16.696h-117.29c0.654-5.875,0.309-60.848,0.309-66.783h194.894c9.217,0,16.696-7.473,16.696-16.696
			C512,113.212,504.521,105.739,495.304,105.739z M100.174,55.652c0-9.206,7.49-16.696,16.696-16.696s16.696,7.49,16.696,16.696
			v146.087c0,2.298-1.87,4.174-4.174,4.174h-25.043c-2.304,0-4.174-1.875-4.174-4.174V55.652z M150.261,372.87
			c-46.032,0-83.478-37.446-83.478-83.478c0-9.223,7.479-16.696,16.696-16.696s16.696,7.473,16.696,16.696
			c0,27.619,22.468,50.087,50.087,50.087c9.217,0,16.696,7.473,16.696,16.696C166.957,365.397,159.478,372.87,150.261,372.87z
			 M200.348,201.739c0,2.298-1.87,4.174-4.174,4.174H171.13c-2.304,0-4.174-1.875-4.174-4.174V55.652
			c0-9.206,7.49-16.696,16.696-16.696c9.206,0,16.696,7.49,16.696,16.696V201.739z M267.13,201.739c0,2.298-1.87,4.174-4.174,4.174
			h-25.044c-2.304,0-4.174-1.875-4.174-4.174V55.652c0-9.206,7.49-16.696,16.696-16.696c9.206,0,16.696,7.49,16.696,16.696V201.739z
			"/>
	</g>
</g>
<g>
	<g>
		<path d="M100.174,447.443v8.904c0,27.619,22.468,50.087,50.087,50.087h133.565c27.619,0,50.087-22.468,50.087-50.087v-8.904
			H100.174z"/>
	</g>
</g>
<g>
</g>
<g>
</g>
<g>
</g>
<g>
</g>
<g>
</g>
<g>
</g>
<g>
</g>
<g>
</g>
<g>
</g>
<g>
</g>
<g>
</g>
<g>
</g>
<g>
</g>
<g>
</g>
<g>
</g>
</svg>
